<svg xmlns="http://www.w3.org/2000/svg" xmlns:xlink="http://www.w3.org/1999/xlink" contentStyleType="text/css" data-diagram-type="CLASS" height="374px" preserveAspectRatio="none" style="width:974px;height:374px;background:#FFFFFF;" version="1.1" viewBox="0 0 974 374" width="974px" zoomAndPan="magnify"><title>Data Integration (How tables are related)</title><defs/><g><g class="title" data-source-line="10"><text fill="#000000" font-family="sans-serif" font-size="14" font-weight="bold" lengthAdjust="spacing" textLength="328.9453" x="315.5623" y="22.9951">Data Integration (How tables are related)</text></g><!--cluster CRM\nCustomer Relationship Management--><g class="cluster" data-qualified-name="CRM.nCustomer Relationship Management" data-source-line="15" id="ent0002"><rect fill="#E3F2FD" height="159" rx="7.5" ry="7.5" style="stroke:#000000;stroke-width:1.5;" width="569.72" x="7" y="44.2969"/><text fill="#000000" font-family="sans-serif" font-size="14" font-weight="bold" lengthAdjust="spacing" textLength="34.9863" x="274.3668" y="59.292">CRM</text><text fill="#000000" font-family="sans-serif" font-size="14" font-weight="bold" lengthAdjust="spacing" textLength="287.3896" x="148.1652" y="75.5889">Customer Relationship Management</text></g><!--cluster ERP\nEnterprise Resource Planning--><g class="cluster" data-qualified-name="ERP.nEnterprise Resource Planning" data-source-line="43" id="ent0010"><rect fill="#FFF8E1" height="141" rx="7.5" ry="7.5" style="stroke:#000000;stroke-width:1.5;" width="562.79" x="405.28" y="227.2969"/><text fill="#000000" font-family="sans-serif" font-size="14" font-weight="bold" lengthAdjust="spacing" textLength="30.6045" x="671.3728" y="242.292">ERP</text><text fill="#000000" font-family="sans-serif" font-size="14" font-weight="bold" lengthAdjust="spacing" textLength="234.042" x="569.654" y="258.5889">Enterprise Resource Planning</text></g><!--class crm_prd--><g class="entity" data-qualified-name="CRM.nCustomer Relationship Management.crm_prd" data-source-line="17" id="ent0003"><rect fill="#E1F5FE" height="74.8906" rx="7.5" ry="7.5" style="stroke:#181818;stroke-width:0.5;" width="122.877" x="23" y="103.8469"/><ellipse cx="38" cy="125.1438" fill="#ADD1B2" rx="11" ry="11" style="stroke:#181818;stroke-width:1;"/><path d="M42.1094,131.1438 L34.3906,131.1438 L34.3906,118.7531 L42.1094,118.7531 L42.1094,120.9094 L36.8438,120.9094 L36.8438,123.5813 L41.6094,123.5813 L41.6094,125.7375 L36.8438,125.7375 L36.8438,128.9875 L42.1094,128.9875 L42.1094,131.1438 Z " fill="#000000"/><text fill="#000000" font-family="sans-serif" font-size="14" lengthAdjust="spacing" textLength="90.877" x="52" y="121.842">crm_prd_info</text><text fill="#000000" font-family="sans-serif" font-size="14" lengthAdjust="spacing" textLength="85.6748" x="54.6011" y="138.1389">&#171;PRODUCT&#187;</text><line style="stroke:#181818;stroke-width:0.5;" x1="24" x2="144.877" y1="146.4406" y2="146.4406"/><text fill="#000000" font-family="sans-serif" font-size="14" lengthAdjust="spacing" textLength="55.5352" x="29" y="163.4357">prd_key</text><line style="stroke:#181818;stroke-width:0.5;" x1="24" x2="144.877" y1="170.7375" y2="170.7375"/></g><!--class crm_cust--><g class="entity" data-qualified-name="CRM.nCustomer Relationship Management.crm_cust" data-source-line="21" id="ent0004"><rect fill="#E8F5E9" height="91.1875" rx="7.5" ry="7.5" style="stroke:#181818;stroke-width:0.5;" width="128.7012" x="432.02" y="95.7069"/><ellipse cx="447.02" cy="117.0038" fill="#ADD1B2" rx="11" ry="11" style="stroke:#181818;stroke-width:1;"/><path d="M451.1294,123.0038 L443.4106,123.0038 L443.4106,110.6131 L451.1294,110.6131 L451.1294,112.7694 L445.8638,112.7694 L445.8638,115.4413 L450.6294,115.4413 L450.6294,117.5975 L445.8638,117.5975 L445.8638,120.8475 L451.1294,120.8475 L451.1294,123.0038 Z " fill="#000000"/><text fill="#000000" font-family="sans-serif" font-size="14" lengthAdjust="spacing" textLength="96.7012" x="461.02" y="113.702">crm_cust_info</text><text fill="#000000" font-family="sans-serif" font-size="14" lengthAdjust="spacing" textLength="96.2637" x="461.2388" y="129.9989">&#171;CUSTOMER&#187;</text><line style="stroke:#181818;stroke-width:0.5;" x1="433.02" x2="559.7212" y1="138.3006" y2="138.3006"/><text fill="#000000" font-family="sans-serif" font-size="14" lengthAdjust="spacing" textLength="40.2568" x="438.02" y="155.2957">cst_id</text><text fill="#000000" font-family="sans-serif" font-size="14" lengthAdjust="spacing" textLength="52.4863" x="438.02" y="171.5926">cst_key</text><line style="stroke:#181818;stroke-width:0.5;" x1="433.02" x2="559.7212" y1="178.8944" y2="178.8944"/></g><!--class crm_sales--><g class="entity" data-qualified-name="CRM.nCustomer Relationship Management.crm_sales" data-source-line="26" id="ent0005"><rect fill="#E8EAF6" height="91.1875" rx="7.5" ry="7.5" style="stroke:#181818;stroke-width:0.5;" width="155.4023" x="205.88" y="95.7069"/><ellipse cx="220.88" cy="117.0038" fill="#ADD1B2" rx="11" ry="11" style="stroke:#181818;stroke-width:1;"/><path d="M224.9894,123.0038 L217.2706,123.0038 L217.2706,110.6131 L224.9894,110.6131 L224.9894,112.7694 L219.7238,112.7694 L219.7238,115.4413 L224.4894,115.4413 L224.4894,117.5975 L219.7238,117.5975 L219.7238,120.8475 L224.9894,120.8475 L224.9894,123.0038 Z " fill="#000000"/><text fill="#000000" font-family="sans-serif" font-size="14" lengthAdjust="spacing" textLength="123.4023" x="234.88" y="113.702">crm_sales_details</text><text fill="#000000" font-family="sans-serif" font-size="14" lengthAdjust="spacing" textLength="61.127" x="266.0177" y="129.9989">&#171;SALES&#187;</text><line style="stroke:#181818;stroke-width:0.5;" x1="206.88" x2="360.2823" y1="138.3006" y2="138.3006"/><text fill="#000000" font-family="sans-serif" font-size="14" lengthAdjust="spacing" textLength="55.5352" x="211.88" y="155.2957">prd_key</text><text fill="#000000" font-family="sans-serif" font-size="14" lengthAdjust="spacing" textLength="40.2568" x="211.88" y="171.5926">cst_id</text><line style="stroke:#181818;stroke-width:0.5;" x1="206.88" x2="360.2823" y1="178.8944" y2="178.8944"/></g><!--class erp_prd--><g class="entity" data-qualified-name="ERP.nEnterprise Resource Planning.erp_prd" data-source-line="45" id="ent0011"><rect fill="#FFE0B2" height="74.8906" rx="7.5" ry="7.5" style="stroke:#181818;stroke-width:0.5;" width="150.1797" x="421.28" y="277.8469"/><ellipse cx="436.28" cy="299.1438" fill="#ADD1B2" rx="11" ry="11" style="stroke:#181818;stroke-width:1;"/><path d="M440.3894,305.1438 L432.6706,305.1438 L432.6706,292.7531 L440.3894,292.7531 L440.3894,294.9094 L435.1238,294.9094 L435.1238,297.5813 L439.8894,297.5813 L439.8894,299.7375 L435.1238,299.7375 L435.1238,302.9875 L440.3894,302.9875 L440.3894,305.1438 Z " fill="#000000"/><text fill="#000000" font-family="sans-serif" font-size="14" lengthAdjust="spacing" textLength="118.1797" x="450.28" y="295.842">erp_px_cat_g1v2</text><text fill="#000000" font-family="sans-serif" font-size="14" lengthAdjust="spacing" textLength="85.6748" x="466.5324" y="312.1389">&#171;PRODUCT&#187;</text><line style="stroke:#181818;stroke-width:0.5;" x1="422.28" x2="570.4597" y1="320.4406" y2="320.4406"/><text fill="#000000" font-family="sans-serif" font-size="14" lengthAdjust="spacing" textLength="12.7764" x="427.28" y="337.4357">id</text><line style="stroke:#181818;stroke-width:0.5;" x1="422.28" x2="570.4597" y1="344.7375" y2="344.7375"/></g><!--class erp_cust--><g class="entity" data-qualified-name="ERP.nEnterprise Resource Planning.erp_cust" data-source-line="49" id="ent0012"><rect fill="#E8F5E9" height="74.8906" rx="7.5" ry="7.5" style="stroke:#181818;stroke-width:0.5;" width="132.3516" x="631.46" y="277.8469"/><ellipse cx="646.46" cy="299.1438" fill="#ADD1B2" rx="11" ry="11" style="stroke:#181818;stroke-width:1;"/><path d="M650.5694,305.1438 L642.8506,305.1438 L642.8506,292.7531 L650.5694,292.7531 L650.5694,294.9094 L645.3038,294.9094 L645.3038,297.5813 L650.0694,297.5813 L650.0694,299.7375 L645.3038,299.7375 L645.3038,302.9875 L650.5694,302.9875 L650.5694,305.1438 Z " fill="#000000"/><text fill="#000000" font-family="sans-serif" font-size="14" lengthAdjust="spacing" textLength="100.3516" x="660.46" y="295.842">erp_cust_az12</text><text fill="#000000" font-family="sans-serif" font-size="14" lengthAdjust="spacing" textLength="96.2637" x="662.5039" y="312.1389">&#171;CUSTOMER&#187;</text><line style="stroke:#181818;stroke-width:0.5;" x1="632.46" x2="762.8116" y1="320.4406" y2="320.4406"/><text fill="#000000" font-family="sans-serif" font-size="14" lengthAdjust="spacing" textLength="20.4736" x="637.46" y="337.4357">cid</text><line style="stroke:#181818;stroke-width:0.5;" x1="632.46" x2="762.8116" y1="344.7375" y2="344.7375"/></g><!--class erp_loc--><g class="entity" data-qualified-name="ERP.nEnterprise Resource Planning.erp_loc" data-source-line="53" id="ent0013"><rect fill="#E8F5E9" height="74.8906" rx="7.5" ry="7.5" style="stroke:#181818;stroke-width:0.5;" width="128.2637" x="823.81" y="277.8469"/><ellipse cx="838.81" cy="299.1438" fill="#ADD1B2" rx="11" ry="11" style="stroke:#181818;stroke-width:1;"/><path d="M842.9194,305.1438 L835.2006,305.1438 L835.2006,292.7531 L842.9194,292.7531 L842.9194,294.9094 L837.6538,294.9094 L837.6538,297.5813 L842.4194,297.5813 L842.4194,299.7375 L837.6538,299.7375 L837.6538,302.9875 L842.9194,302.9875 L842.9194,305.1438 Z " fill="#000000"/><text fill="#000000" font-family="sans-serif" font-size="14" lengthAdjust="spacing" textLength="92.709" x="854.5873" y="295.842">erp_loc_a101</text><text fill="#000000" font-family="sans-serif" font-size="14" lengthAdjust="spacing" textLength="96.2637" x="852.81" y="312.1389">&#171;CUSTOMER&#187;</text><line style="stroke:#181818;stroke-width:0.5;" x1="824.81" x2="951.0737" y1="320.4406" y2="320.4406"/><text fill="#000000" font-family="sans-serif" font-size="14" lengthAdjust="spacing" textLength="20.4736" x="829.81" y="337.4357">cid</text><line style="stroke:#181818;stroke-width:0.5;" x1="824.81" x2="951.0737" y1="344.7375" y2="344.7375"/></g><!--link crm_prd to crm_sales--><!--link crm_sales to crm_prd--><g class="link" data-entity-1="ent0005" data-entity-2="ent0003" data-link-type="dependency" data-source-line="36" id="lnk8"><path codeLine="36" d="M205.44,128.8169 C185.83,128.8169 171.05,128.8169 152.35,128.8169" fill="none" id="crm_sales-to-crm_prd" style="stroke:#000000;stroke-width:1;"/><polygon fill="#000000" points="146.35,128.8169,155.35,132.8169,151.35,128.8169,155.35,124.8169,146.35,128.8169" style="stroke:#000000;stroke-width:1;"/><text fill="#000000" font-family="sans-serif" font-size="13" lengthAdjust="spacing" textLength="51.5684" x="123.9" y="141.8838">prd_key</text></g><!--link crm_sales to crm_cust--><!--link crm_sales to crm_cust--><g class="link" data-entity-1="ent0005" data-entity-2="ent0004" data-link-type="dependency" data-source-line="37" id="lnk9"><path codeLine="37" d="M361.61,126.0969 C384.62,126.0969 403.54,126.0969 425.62,126.0969" fill="none" id="crm_sales-to-crm_cust-1" style="stroke:#000000;stroke-width:1;"/><polygon fill="#000000" points="431.62,126.0969,422.62,122.0969,426.62,126.0969,422.62,130.0969,431.62,126.0969" style="stroke:#000000;stroke-width:1;"/><text fill="#000000" font-family="sans-serif" font-size="13" lengthAdjust="spacing" textLength="37.3813" x="358.61" y="139.1638">cst_id</text></g><!--link erp_prd to erp_cust--><!--link erp_cust to erp_loc--><!--link crm_prd to erp_prd--><g class="link" data-entity-1="ent0003" data-entity-2="ent0011" data-link-type="dependency" data-source-line="65" id="lnk16"><path codeLine="65" d="M85.07,179.0569 C85.07,230.2269 85.07,315.2969 85.07,315.2969 C85.07,315.2969 296.19,315.2969 414.93,315.2969" fill="none" id="crm_prd-to-erp_prd" style="stroke:#000000;stroke-width:1;stroke-dasharray:7,7;"/><polygon fill="#000000" points="420.93,315.2969,411.93,311.2969,415.93,315.2969,411.93,319.2969,420.93,315.2969" style="stroke:#000000;stroke-width:1;"/><text fill="#000000" font-family="sans-serif" font-size="13" lengthAdjust="spacing" textLength="109.7954" x="74.88" y="328.3638">Product Mapping</text></g><!--link crm_cust to erp_cust--><g class="link" data-entity-1="ent0004" data-entity-2="ent0012" data-link-type="dependency" data-source-line="66" id="lnk17"><path codeLine="66" d="M561.02,156.4969 C620.02,156.4969 698.07,156.4969 698.07,156.4969 C698.07,156.4969 698.07,224.7069 698.07,271.6669" fill="none" id="crm_cust-to-erp_cust" style="stroke:#000000;stroke-width:1;stroke-dasharray:7,7;"/><polygon fill="#000000" points="698.07,277.6669,702.07,268.6669,698.07,272.6669,694.07,268.6669,698.07,277.6669" style="stroke:#000000;stroke-width:1;"/><text fill="#000000" font-family="sans-serif" font-size="13" lengthAdjust="spacing" textLength="123.0684" x="566.13" y="169.5638">Customer Mapping</text></g><!--link crm_cust to erp_loc--><g class="link" data-entity-1="ent0004" data-entity-2="ent0013" data-link-type="dependency" data-source-line="67" id="lnk18"><path codeLine="67" d="M561.05,126.0969 C672.31,126.0969 888.07,126.0969 888.07,126.0969 C888.07,126.0969 888.07,216.2469 888.07,271.4669" fill="none" id="crm_cust-to-erp_loc" style="stroke:#000000;stroke-width:1;stroke-dasharray:7,7;"/><polygon fill="#000000" points="888.07,277.4669,892.07,268.4669,888.07,272.4669,884.07,268.4669,888.07,277.4669" style="stroke:#000000;stroke-width:1;"/><text fill="#000000" font-family="sans-serif" font-size="13" lengthAdjust="spacing" textLength="115.1338" x="684.25" y="139.1638">Location Mapping</text></g><!--SRC=[ZLHTRzem57tFhxXY3sqVMZLCdRggGwBWj6XyAKaVfZ55NcB0gh4ZnuoogVzzro790XIOtvnxxZd7lYUcGgZLWhzoENC4cnem2ZIVpGqaNBFOS2KT9tlXCgMQBY2RqqIj40nJAZ9MgmWkcLcd39GsSrKhQBMKIQoqP1hScreXfV4BdR70h0K3gqNbJDGfsrghLKS9fU518DXn33U8xL93eISDcsbg3SBvarg1eJy5ou1gIoQeOSc5uvp1bqCBQnr_0C6t82G3EEyJBxmuYY_yGWFR9hApp8nQu9byAuOkiZbFOK0bGXPCcWPy81-zfjU5Fuu3kF0RDsjen7eHfJg9k9ogYRo_7_kZxdCdRBKQG3CegjZiUZSUmMOebkrvOUjy_xPF6QEVYhFp78IZ0V5hfBQEhBVU3VbSOurjLxArFIAIKRpYA666Sf5PeQ3T9q5D9GTO6TBsFXqmloDRo9p1uv8d30HTgwM1ypbF4YOlybfvAPVVDrz_NBR-gLM8ZVOknfwxLB3pvfWRBQdOXAIOsnv9qMn5xxRCxsFoYxqhJ_HsAdF47rUPytkFJ_yREkoRI6BDfvfd36ENgQME6Om5bHB_I0oSvtctnDqD77P4wMiKKnFDt5_D_Spb09ivpoFN3ytQsBP7L2VCuqP_kyrtubRMtulROKQXueYwr-u1GYoVvZiMelAKzO2KJYj0RdiNWTAdvzfjXste3KFowBV3tcW8_TxmQt2qgKmON5srAdiOfR5MoJ8s-9YagNsNgvILk29orHDq46Wl3O5z5MyUoWBu5m00]--></g></svg>