<svg xmlns="http://www.w3.org/2000/svg" xmlns:xlink="http://www.w3.org/1999/xlink" contentStyleType="text/css" data-diagram-type="CLASS" height="521px" preserveAspectRatio="none" style="width:767px;height:521px;background:#FFFFFF;" version="1.1" viewBox="0 0 767 521" width="767px" zoomAndPan="magnify"><title>Sales Data Mart - Star Schema</title><defs/><g><g class="title" data-source-line="6"><text fill="#000000" font-family="sans-serif" font-size="14" font-weight="bold" lengthAdjust="spacing" textLength="241.5273" x="255.9745" y="22.9951">Sales Data Mart - Star Schema</text></g><!--class dim_customers--><g class="entity" data-qualified-name="dim_customers" data-source-line="8" id="ent0002"><rect fill="#F1F1F1" height="188.9688" rx="4" ry="4" style="stroke:#181818;stroke-width:0.5;" width="195.0049" x="7" y="60.5969"/><text fill="#000000" font-family="sans-serif" font-size="14" lengthAdjust="spacing" textLength="141.3125" x="33.8462" y="78.592">gold.dim_customers</text><line style="stroke:#181818;stroke-width:0.5;" x1="8" x2="201.0049" y1="86.8937" y2="86.8937"/><g data-visibility-modifier="PUBLIC_FIELD"><ellipse cx="18" cy="100.5422" fill="none" rx="3" ry="3" style="stroke:#038048;stroke-width:1;"/></g><text fill="#000000" font-family="sans-serif" font-size="14" lengthAdjust="spacing" textLength="169.0049" x="27" y="103.8889">customer_key : int &#171;PK&#187;</text><line style="stroke:#181818;stroke-width:1;" x1="8" x2="201.0049" y1="111.1906" y2="111.1906"/><text fill="#000000" font-family="sans-serif" font-size="14" lengthAdjust="spacing" textLength="117.5713" x="13" y="128.1857">customer_id : int</text><text fill="#000000" font-family="sans-serif" font-size="14" lengthAdjust="spacing" textLength="181.3711" x="13" y="144.4826">customer_number : string</text><text fill="#000000" font-family="sans-serif" font-size="14" lengthAdjust="spacing" textLength="127.8662" x="13" y="160.7795">first_name : string</text><text fill="#000000" font-family="sans-serif" font-size="14" lengthAdjust="spacing" textLength="125.7607" x="13" y="177.0764">last_name : string</text><text fill="#000000" font-family="sans-serif" font-size="14" lengthAdjust="spacing" textLength="107.3447" x="13" y="193.3732">country : string</text><text fill="#000000" font-family="sans-serif" font-size="14" lengthAdjust="spacing" textLength="153.6445" x="13" y="209.6701">marital_status : string</text><text fill="#000000" font-family="sans-serif" font-size="14" lengthAdjust="spacing" textLength="103.4346" x="13" y="225.967">gender : string</text><text fill="#000000" font-family="sans-serif" font-size="14" lengthAdjust="spacing" textLength="109.6484" x="13" y="242.2639">birthdate : date</text></g><path d="M236.53,122.3769 L236.53,146.0761 L166.6445,204.8234 L236.53,154.0761 L236.53,177.7753 A0,0 0 0 0 236.53,177.7753 L360.4763,177.7753 A0,0 0 0 0 360.4763,177.7753 L360.4763,132.3769 L350.4763,122.3769 L236.53,122.3769 A0,0 0 0 0 236.53,122.3769" fill="#FEFFDD" style="stroke:#181818;stroke-width:0.5;"/><path d="M350.4763,122.3769 L350.4763,132.3769 L360.4763,132.3769 L350.4763,122.3769" fill="#FEFFDD" style="stroke:#181818;stroke-width:0.5;"/><text fill="#000000" font-family="sans-serif" font-size="13" lengthAdjust="spacing" textLength="102.9463" x="242.53" y="139.4438">Allowed Values:</text><text fill="#000000" font-family="sans-serif" font-size="13" lengthAdjust="spacing" textLength="58.5571" x="242.53" y="154.5766">- Married</text><text fill="#000000" font-family="sans-serif" font-size="13" lengthAdjust="spacing" textLength="48.7881" x="242.53" y="169.7094">- Single</text><!--class dim_products--><g class="entity" data-qualified-name="dim_products" data-source-line="27" id="ent0005"><rect fill="#F1F1F1" height="221.5625" rx="4" ry="4" style="stroke:#181818;stroke-width:0.5;" width="206.5918" x="395.21" y="44.2969"/><text fill="#000000" font-family="sans-serif" font-size="14" lengthAdjust="spacing" textLength="129.541" x="433.7354" y="62.292">gold.dim_products</text><line style="stroke:#181818;stroke-width:0.5;" x1="396.21" x2="600.8018" y1="70.5938" y2="70.5938"/><g data-visibility-modifier="PUBLIC_FIELD"><ellipse cx="406.21" cy="84.2422" fill="none" rx="3" ry="3" style="stroke:#038048;stroke-width:1;"/></g><text fill="#000000" font-family="sans-serif" font-size="14" lengthAdjust="spacing" textLength="157.2334" x="415.21" y="87.5889">product_key : int &#171;PK&#187;</text><line style="stroke:#181818;stroke-width:1;" x1="396.21" x2="600.8018" y1="94.8906" y2="94.8906"/><text fill="#000000" font-family="sans-serif" font-size="14" lengthAdjust="spacing" textLength="105.7998" x="401.21" y="111.8857">product_id : int</text><text fill="#000000" font-family="sans-serif" font-size="14" lengthAdjust="spacing" textLength="169.5996" x="401.21" y="128.1826">product_number : string</text><text fill="#000000" font-family="sans-serif" font-size="14" lengthAdjust="spacing" textLength="154.6631" x="401.21" y="144.4795">product_name : string</text><text fill="#000000" font-family="sans-serif" font-size="14" lengthAdjust="spacing" textLength="113.5176" x="401.21" y="160.7764">category_id : int</text><text fill="#000000" font-family="sans-serif" font-size="14" lengthAdjust="spacing" textLength="115.6777" x="401.21" y="177.0732">category : string</text><text fill="#000000" font-family="sans-serif" font-size="14" lengthAdjust="spacing" textLength="140.7314" x="401.21" y="193.3701">subcategory : string</text><text fill="#000000" font-family="sans-serif" font-size="14" lengthAdjust="spacing" textLength="194.5918" x="401.21" y="209.667">maintenance_flag : boolean</text><text fill="#000000" font-family="sans-serif" font-size="14" lengthAdjust="spacing" textLength="97.8564" x="401.21" y="225.9639">cost : decimal</text><text fill="#000000" font-family="sans-serif" font-size="14" lengthAdjust="spacing" textLength="140.2256" x="401.21" y="242.2607">product_line : string</text><text fill="#000000" font-family="sans-serif" font-size="14" lengthAdjust="spacing" textLength="116.3613" x="401.21" y="258.5576">start_date : date</text></g><path d="M636.53,122.3769 L636.53,146.0761 L595.8018,204.8203 L636.53,154.0761 L636.53,177.7753 A0,0 0 0 0 636.53,177.7753 L760.4763,177.7753 A0,0 0 0 0 760.4763,177.7753 L760.4763,132.3769 L750.4763,122.3769 L636.53,122.3769 A0,0 0 0 0 636.53,122.3769" fill="#FEFFDD" style="stroke:#181818;stroke-width:0.5;"/><path d="M750.4763,122.3769 L750.4763,132.3769 L760.4763,132.3769 L750.4763,122.3769" fill="#FEFFDD" style="stroke:#181818;stroke-width:0.5;"/><text fill="#000000" font-family="sans-serif" font-size="13" lengthAdjust="spacing" textLength="102.9463" x="642.53" y="139.4438">Allowed Values:</text><text fill="#000000" font-family="sans-serif" font-size="13" lengthAdjust="spacing" textLength="31.5352" x="642.53" y="154.5766">- Yes</text><text fill="#000000" font-family="sans-serif" font-size="13" lengthAdjust="spacing" textLength="26.5015" x="642.53" y="169.7094">- No</text><!--class fact_sales--><g class="entity" data-qualified-name="fact_sales" data-source-line="48" id="ent0008"><rect fill="#F1F1F1" height="188.9688" rx="4" ry="4" style="stroke:#181818;stroke-width:0.5;" width="196.29" x="203.36" y="325.8569"/><text fill="#000000" font-family="sans-serif" font-size="14" lengthAdjust="spacing" textLength="104.043" x="249.4835" y="343.852">gold.fact_sales</text><line style="stroke:#181818;stroke-width:0.5;" x1="204.36" x2="398.65" y1="352.1537" y2="352.1537"/><g data-visibility-modifier="PUBLIC_FIELD"><ellipse cx="214.36" cy="365.8022" fill="none" rx="3" ry="3" style="stroke:#038048;stroke-width:1;"/></g><text fill="#000000" font-family="sans-serif" font-size="14" lengthAdjust="spacing" textLength="170.29" x="223.36" y="369.1489">order_number : int &#171;PK&#187;</text><line style="stroke:#181818;stroke-width:1;" x1="204.36" x2="398.65" y1="376.4506" y2="376.4506"/><text fill="#000000" font-family="sans-serif" font-size="14" lengthAdjust="spacing" textLength="156.8438" x="209.36" y="393.4457">product_key : int &#171;FK&#187;</text><text fill="#000000" font-family="sans-serif" font-size="14" lengthAdjust="spacing" textLength="168.6152" x="209.36" y="409.7426">customer_key : int &#171;FK&#187;</text><text fill="#000000" font-family="sans-serif" font-size="14" lengthAdjust="spacing" textLength="121.3311" x="209.36" y="426.0395">order_date : date</text><text fill="#000000" font-family="sans-serif" font-size="14" lengthAdjust="spacing" textLength="143.2334" x="209.36" y="442.3364">shipping_date : date</text><text fill="#000000" font-family="sans-serif" font-size="14" lengthAdjust="spacing" textLength="110.127" x="209.36" y="458.6332">due_date : date</text><text fill="#000000" font-family="sans-serif" font-size="14" lengthAdjust="spacing" textLength="90.2344" x="209.36" y="474.9301">quantity : int</text><text fill="#000000" font-family="sans-serif" font-size="14" lengthAdjust="spacing" textLength="103.6533" x="209.36" y="491.227">price : decimal</text><text fill="#000000" font-family="sans-serif" font-size="14" lengthAdjust="spacing" textLength="165.498" x="209.36" y="507.5239">sales_amount : decimal</text></g><g class="entity" data-qualified-name="GMN11" data-source-line="65" id="ent0012"><path d="M434.88,404.2069 L434.88,416.8269 L399.91,420.8269 L434.88,424.8269 L434.88,436.4725 A4,4 0 0 0 438.88,440.4725 L662.1334,440.4725 A4,4 0 0 0 666.1334,436.4725 L666.1334,410.2069 L656.1334,400.2069 L438.88,400.2069 A4,4 0 0 0 434.88,404.2069" fill="#FEFFDD" style="stroke:#181818;stroke-width:0.5;"/><path d="M656.1334,400.2069 L656.1334,408.2069 A2,2 0 0 0 658.1334,410.2069 L666.1334,410.2069 L656.1334,400.2069" fill="#FEFFDD" style="stroke:#181818;stroke-width:0.5;"/><text fill="#000000" font-family="sans-serif" font-size="13" lengthAdjust="spacing" textLength="115.6353" x="440.88" y="417.2738">Sales Calculation:</text><text fill="#000000" font-family="sans-serif" font-size="13" lengthAdjust="spacing" textLength="210.2534" x="440.88" y="432.4066">sales_amount = quantity * price</text></g><!--link dim_customers to fact_sales--><g class="link" data-entity-1="ent0002" data-entity-2="ent0008" data-link-type="crowfoot" data-source-line="61" id="lnk9"><path codeLine="61" d="M210.41,218.8269 C220.95,218.8269 219.94,218.8269 219.94,218.8269 C219.94,218.8269 219.94,255.2169 219.94,307.4869" fill="none" id="dim_customers-fact_sales" style="stroke:#181818;stroke-width:1;"/><line style="stroke:#181818;stroke-width:1;" x1="206.41" x2="206.41" y1="222.8269" y2="214.8269"/><line style="stroke:#181818;stroke-width:1;" x1="209.41" x2="209.41" y1="222.8269" y2="214.8269"/><line style="stroke:#181818;stroke-width:1;" x1="210.41" x2="202.41" y1="218.8269" y2="218.8269"/><line style="stroke:#181818;stroke-width:1;" x1="219.94" x2="225.94" y1="317.4869" y2="325.4869"/><line style="stroke:#181818;stroke-width:1;" x1="219.94" x2="213.94" y1="317.4869" y2="325.4869"/><line style="stroke:#181818;stroke-width:1;" x1="219.94" x2="219.94" y1="317.4869" y2="325.4869"/><ellipse cx="219.94" cy="311.4869" fill="none" rx="4" ry="4" style="stroke:#181818;stroke-width:1;"/><text fill="#000000" font-family="sans-serif" font-size="13" lengthAdjust="spacing" textLength="90.9365" x="128.94" y="276.4538">customer_key</text></g><!--link dim_products to fact_sales--><g class="link" data-entity-1="ent0005" data-entity-2="ent0008" data-link-type="crowfoot" data-source-line="62" id="lnk10"><path codeLine="62" d="M386.87,257.8269 C376.58,257.8269 377.84,257.8269 377.84,257.8269 C377.84,257.8269 377.84,272.0569 377.84,307.8069" fill="none" id="dim_products-fact_sales" style="stroke:#181818;stroke-width:1;"/><line style="stroke:#181818;stroke-width:1;" x1="390.87" x2="390.87" y1="253.8269" y2="261.8269"/><line style="stroke:#181818;stroke-width:1;" x1="387.87" x2="387.87" y1="253.8269" y2="261.8269"/><line style="stroke:#181818;stroke-width:1;" x1="386.87" x2="394.87" y1="257.8269" y2="257.8269"/><line style="stroke:#181818;stroke-width:1;" x1="377.84" x2="383.84" y1="317.8069" y2="325.8069"/><line style="stroke:#181818;stroke-width:1;" x1="377.84" x2="371.84" y1="317.8069" y2="325.8069"/><line style="stroke:#181818;stroke-width:1;" x1="377.84" x2="377.84" y1="317.8069" y2="325.8069"/><ellipse cx="377.84" cy="311.8069" fill="none" rx="4" ry="4" style="stroke:#181818;stroke-width:1;"/><text fill="#000000" font-family="sans-serif" font-size="13" lengthAdjust="spacing" textLength="80.0059" x="296.84" y="279.3638">product_key</text></g><!--SRC=[XPHDZzGm38Rl-HNM7a7bZAfb9GJYWa188o5ngZo9fuqs7oLn1TKk_vsadNQQcRBqC9s-TkFuUPsYCVwNrR-rQqMd5O7KGHeIyL6x7WDQCDeHZps13zpvJI3umIdfWwC0RuLWpORWW8OYV4H6-8A1eO83Ou23xCYY4EHIsWXthJVgZTAsaKDaRod4Ey08XG9F0jBr6XQbUQGHQj2EuVx-s-U7XobULTDjJT9gpYbLDzXZscSDaKFkDGTFEaHk75egTOExiapzSXXBqMBGZAQ9Z3p4CjQIKzSrZpfHLCXvxNmJVuHmFZq6tNOC_bGogEkoW7YV_I85tz4C56jHPSn1aqh_3gb8iYvLXRpa3kq-U3L8li1UX9NrMNWHzP9Ja5x4FT1hx9PfGj3wC5wvTbRBt3WSzmCMqulaq4bgJWRR53rwRmZTsRV8cJP9RT4K6ygpVLKaJIit_pLeuPRzAOllEFI3Olhzwl_bp0dJLc8-E9ClbyVL5H_KTePVjcLhtQSbP_SChT5v_MtN4ujEztq2SnDG0zreFmUSUzgEX9PqHNxggq6Rpz8cb22NP__vkQhyqvP5NVGWYkdTJT_mkBRmaYVc3zO7D78moDgxMXHxV7VfxDNSqMhZNm00]--></g></svg>